<?xml version="1.0" encoding="utf-8"?>
<!-- Generator: Adobe Illustrator 20.0.0, SVG Export Plug-In . SVG Version: 6.00 Build 0)  -->
<svg version="1.1" id="圖層_1" xmlns="http://www.w3.org/2000/svg" xmlns:xlink="http://www.w3.org/1999/xlink" x="0px" y="0px"
	 viewBox="0 0 195.6 215.6" style="enable-background:new 0 0 195.6 215.6;" xml:space="preserve">
<style type="text/css">
	.st0{fill:#FFFFFF;}
</style>
<path class="st0" d="M83.4,71.5c4.3,6,9.5,14.2,12,19.7l-14.1,6.3c-2-5.4-7-14.2-11.2-20.8l12.5-5.2H3.6V58.8h12.7V48.6h-10V35.8H8
	C6.5,33.1,2.5,26.9,0,24.2c8-5.2,15.9-13.7,20.3-22.6l12.5,4.2c-1.2,2.5-2.6,4.9-4.2,7.3h61.6v12.6h-71c-0.8,0.9-1.6,1.8-2.4,2.6
	h12.1v7.7h4.8v-7.7h11.9v7.7h5.4v-7.7h11.9v7.7h5.4v-7.7h13.2v7.7h8.9v12.8h-8.9v10.2h11.2v12.8H83.4z M1.3,91.9
	C4.9,87.2,9.9,79.2,13,72.2l14,3.7c-3,7.3-7.9,16.1-11.6,21.8L1.3,91.9z M16.3,35.8v-7.1c-2.7,2.7-5.3,5-8.1,7.1H16.3z M28.9,58.8
	h4.8V48.6h-4.8V58.8z M43.4,75.4c1.3,6.1,2.5,14.1,2.6,19.1l-14.1,2.1c0-4.9-0.7-13.3-1.8-19.6L43.4,75.4z M45.6,48.6v10.2h5.4V48.6
	H45.6z M63.5,74.5c2.4,5.9,4.7,13.7,5.5,18.8L54.6,96C54.1,91.1,52.1,83,50,76.8L63.5,74.5z M62.9,48.6v10.2h5.4V48.6H62.9z
	 M128,15.1h10.4v12.6H128v9.7h2.2l2.4-0.4l8.2,3c-0.8,4.8-1.7,9.4-2.9,13.7c3.6-2.4,8.3-6,13.4-10.1v-5.7l-7,2.8
	c-1.1-4-3.7-10.6-5.8-15.5l8.9-3.2c1.3,2.6,2.8,5.6,4,8.5V18.9h-11.7V6.8H164v59.5c0,6-1,9.2-4.6,11.1c-3.8,1.9-8.9,2-16,2
	c-0.3-3.4-1.5-8.4-3-11.7c3.5,0.2,7.9,0.2,9.1,0.2c1.4-0.1,1.8-0.5,1.8-1.8v-8.5c-2.9,2.6-5.7,5.1-8.5,7.4l-4.9-11.2
	c-2.2,7.8-5,14.7-8.4,20.8c7.4,5.8,17.2,7.2,29.1,7.3c7,0,29,0,37.1-0.4c-2,3.1-4.2,9.1-4.8,12.9H158c-15.1,0-27-2-36-9.4
	c-4.3,4.7-9,8.6-14.3,11.5c-1.4-3.4-5.3-9.4-7.7-11.9c5-2.5,9.5-5.8,13.4-10.1c-3.8-6.3-6.7-14.4-9-25h-2.4V37.3h12.8v-9.7h-12.9
	V15.1h12.9 M115.9,49.6c1.3,5.5,2.9,10.2,4.8,13.9c2.1-4.2,3.8-8.8,5-13.9H115.9z M164.5,50.3c3.7-2,8.6-4.9,13.8-8.3v-4.8l-8.5,2.8
	c-0.8-4-2.9-10.6-4.5-15.5l9.4-2.8c1.2,3.1,2.6,6.8,3.7,10.1V19H166V6.6h25.3V66c0,6.2-1.1,9.5-4.9,11.5c-3.9,1.9-9.2,2-16.8,2
	c-0.2-3.5-1.6-8.7-3-12c3.7,0.2,8.5,0.2,9.9,0.2c1.4-0.1,1.9-0.5,1.9-1.8V55.3c-3.1,2.3-6.1,4.5-9,6.4L164.5,50.3z M92,200.1v12.9
	H3.8v-12.9H92z M19.2,152.9h-14v-23.7h34.7c-0.6-1.5-1.2-3.1-1.8-4.4l14-4c1.4,2.5,2.9,5.5,3.9,8.3h34.9v23.7H76.2v-11.2h-57V152.9z
	 M18.9,159.9h57.7v37.2H18.9V159.9z M73.4,145.2v11.2H22.2v-11.2H73.4z M32.8,173.6c0,0,8.4-1.7,15,0.5s14.3,0.5,14.3,0.5v-4.1H32.8
	V173.6z M32.8,186.5H62v-2.2c0,0-8.4,2-14.3-0.5s-15-0.5-15-0.5V186.5z M193.5,134.3v12.1h-90.9v-12.1h38.9
	c-1.4-3.3-3.3-6.9-5.1-9.9l14.5-3.5c2.9,4.1,5.8,9.2,7.4,13.4H193.5z M114.7,183.1h67.4v32.2h-14.8v-2.7h-38.5v3h-14.1V183.1z
	 M181,161.9h-65.1v-11.2H181V161.9z M115.9,166.6H181v11.2h-65.1V166.6z M128.8,194.9v6h38.5v-6H128.8z M129.1,4
	c1.6-2.3,3.7-3.5,3.7-3.5c-5.3-1.4-10.4,0.2-15,4.7c-4.5,4.4-5.4,10.7-5.4,10.7c6.7-0.8,16.8,0.2,16.8,0.2
	c-2.6-4.5-2.2-8.1-0.9-10.7l-2.2-1.6L129.1,4L129.1,4z"/>
</svg>
